<svg viewBox="0 0 453 453" xmlns="http://www.w3.org/2000/svg" fill-rule="evenodd" clip-rule="evenodd" stroke-linecap="round" stroke-linejoin="round" stroke-miterlimit="1.5"><circle cx="226.22" cy="226.22" r="225" fill="#dbdbdb"/><path d="M226.22 0C163.813.052 107.297 25.427 66.393 66.393 25.513 107.334.224 163.849.267 226.22c.029 62.341 25.367 118.8 66.269 159.683 40.895 40.874 97.354 66.183 159.684 66.181 62.337.021 118.815-25.271 159.72-66.144 40.919-40.885 66.256-97.364 66.285-159.72.035-62.382-25.261-118.907-66.155-159.851C345.157 25.406 288.631.04 226.22 0zm0 2.439c61.769-.039 117.743 25.003 158.285 65.495 40.561 40.512 65.674 96.486 65.709 158.286.029 61.824-25.043 117.845-65.58 158.414-40.549 40.582-96.571 65.7-158.414 65.721-61.852-.002-117.893-25.103-158.453-65.683C27.215 344.1 2.143 288.058 2.172 226.22c.042-61.811 25.164-117.796 65.739-158.309 40.55-40.489 96.534-65.523 158.309-65.472z"/><path fill="#fff" stroke="#000" stroke-width="2.74" d="M210.54 318.328h36.202v64.403H210.54z"/><path d="M246.742 354.044c.953.267 69.59 9.475 87.972 18.554 12.922 6.382 22.321 35.916 22.321 35.916s-49.853 43.868-130.172 42.122c-83.284-1.811-131.148-42.048-131.148-42.048s10.693-30.391 24.266-36.839c19.138-9.09 90.559-17.705 90.559-17.705" fill="#fff"/><path d="M246.372 355.365c.605.168 28.424 3.886 53.424 8.89 14.314 2.864 27.697 6.14 34.382 9.427 4.209 2.07 7.997 6.725 11.215 11.933 5.561 8.999 9.362 19.701 10.32 22.53-3.702 3.095-25.287 20.302-60.437 31.583-19.048 6.113-42.075 10.48-68.391 9.935-26.634-.581-49.635-5.095-68.582-10.985-36.224-11.261-57.612-27.484-61.319-30.439 1.068-2.87 5.372-13.95 11.458-23.227 3.513-5.354 7.602-10.124 12.035-12.219 6.917-3.267 20.708-6.439 35.448-9.172 25.926-4.808 54.779-8.215 54.779-8.215a1.372 1.372 0 00-.328-2.724s-28.925 3.562-54.909 8.505c-14.97 2.848-28.966 6.167-35.981 9.518-4.744 2.265-9.176 7.328-12.92 13.081-7.153 10.994-11.862 24.446-11.862 24.446a1.07 1.07 0 00.322 1.176s22.219 18.618 62.698 31.139c19.103 5.909 42.276 10.48 69.118 11.062 26.569.604 49.823-3.767 69.069-9.894 39.278-12.504 61.876-32.346 61.876-32.346.339-.299.469-.769.332-1.2 0 0-4.137-13.069-10.715-23.793-3.459-5.639-7.614-10.611-12.155-12.863-6.792-3.369-20.392-6.784-34.949-9.751-24.886-5.074-52.585-8.869-53.188-9.039a1.373 1.373 0 00-.74 2.642z"/><path d="M210.42 353.851s7.531 8.647 18.761 8.716c11.369.07 17.86-8.934 17.86-8.934l42.152 7.603s-5.935 39.196-2.922 50.731c2.832 10.84 23.771 23.271 23.771 23.271-4.08 1.694-20.938 7.797-37.653 11.146-15.286 3.062-23.965 4.735-44.844 4.265-21.224-.477-37.78-3.303-50.732-6.272-15.566-3.567-33.349-9.842-33.349-9.842s20.148-12.833 23.85-24.318c3.703-11.484-.273-49.333-.273-49.333l43.379-7.033z" fill="#0d0000"/><path d="M211.454 352.95a1.373 1.373 0 00-1.254-.454l-43.358 7.157a1.247 1.247 0 00-1.041 1.361s1.665 15.424 1.903 29.537c.132 7.833-.157 15.258-1.457 19.322-1.17 3.659-4.093 7.447-7.453 10.901-6.981 7.176-15.894 12.875-15.894 12.875a1.05 1.05 0 00.215 1.877s7.28 2.552 16.609 5.325c5.282 1.57 11.22 3.211 16.866 4.497a247.845 247.845 0 0025.307 4.443 257.848 257.848 0 0025.626 1.823c9.482.217 16.461-.01 22.681-.602 7.539-.718 13.963-1.975 22.38-3.652 6.626-1.32 13.274-3.07 19.148-4.809 9.026-2.671 16.226-5.317 18.712-6.345a1.046 1.046 0 00.133-1.869s-9.028-5.377-15.952-12.117c-3.439-3.347-6.378-7.015-7.29-10.531-1.069-4.121-.946-11.83-.386-19.975.994-14.472 3.424-30.3 3.424-30.3a1.192 1.192 0 00-.968-1.353l-42.137-7.688a1.28 1.28 0 00-1.266.511s-2.645 3.628-7.477 6.108c-2.529 1.299-5.662 2.28-9.335 2.249-3.699-.031-6.969-1.052-9.661-2.361-5.048-2.455-8.075-5.93-8.075-5.93zm-1.533 2.369c1.157 1.172 4.134 3.921 8.433 5.989 3.018 1.451 6.682 2.568 10.819 2.584 4.155.017 7.694-1.103 10.548-2.584 4.109-2.132 6.791-5.012 7.849-6.28l40.276 7.18c-.558 3.909-2.365 17.116-3.16 29.355-.549 8.436-.6 16.418.522 20.682 1.008 3.834 4.15 7.882 7.914 11.523 5.205 5.036 11.561 9.323 14.6 11.263-3.346 1.281-9.369 3.416-16.571 5.569-5.815 1.738-12.397 3.486-18.958 4.808-8.339 1.679-14.703 2.944-22.175 3.666-6.156.594-13.065.818-22.452.611-9.357-.213-17.804-.881-25.432-1.823-9.605-1.185-17.909-2.8-25.099-4.455-5.601-1.292-11.49-2.935-16.727-4.51a411.092 411.092 0 01-14.499-4.66c3.013-2.06 9.303-6.596 14.545-11.94 3.633-3.703 6.75-7.802 8.028-11.735 1.369-4.213 1.752-11.914 1.656-20.044-.141-11.89-1.275-24.708-1.642-28.588l41.525-6.611z"/><path d="M320.915 207.758c7.183 1.54 11.678 9.027 10.031 16.71-1.646 7.682-8.815 12.67-15.999 11.13-7.183-1.54-11.678-9.027-10.031-16.71 1.647-7.683 8.816-12.67 15.999-11.13zM134.047 207.758c-7.183 1.54-11.678 9.027-10.031 16.71 1.647 7.682 8.816 12.67 15.999 11.13 7.183-1.54 11.678-9.027 10.032-16.71-1.647-7.683-8.816-12.67-16-11.13z" fill="#fff" stroke="#000" stroke-width="2.74"/><ellipse cx="228.034" cy="207.727" rx="91.61" ry="122.938" fill="#fff" stroke="#000" stroke-width="2.83"/><path d="M228.962 76.208c31.335 0 65.21 15.048 79.465 38.207 7.246 11.771 10.15 24.739 11.824 38.994 2.365 20.137 1.359 51.979 0 62.512-.77 5.966-3.651-13.672-5.644-23.365-2.122-10.321-5.015-17.794-10.031-28.54-8.012-17.163-21.252-22.184-29.213-19.356-20.216 7.178-29.832 11.327-46.695 11.2-14.534-.109-30.733-4.755-53.612-11.521-8.006-2.368-17.206 4.065-23.614 20.877-2.769 7.262-7.022 15.865-8.791 22.976-4.834 19.431-4.4 33.865-5.62 26.157-1.688-10.666-3.306-41.378 0-60.947 2.324-13.758 6.125-26.335 13.158-37.37 14.881-23.346 46.929-39.824 78.773-39.824z" fill="#eaeaea" stroke="#000" stroke-width="2.74"/><path d="M246.429 201.91c1.98-1.565 28.169-6.611 28.169-6.611l8.662-1.539 11.351 8-11.828-4.971s-24.408 7.854-32.754 10.802c-1.958.692-5.354-4.294-3.6-5.681zM246.459 226.719s9.597-9.189 19.146-10.326c9.548-1.137 18.749.192 26.108 7.233 1.396 1.336 3.855-1.067 7.32-3.773 2.205-1.722 7.447-6.558 5.62-5.27-1.945 1.371-10.962 5.521-17.607 2.559-17.552-7.824-32.476-.997-40.587 9.577z" stroke="#000"/><ellipse cx="270.405" cy="228.661" rx="12.076" ry="11.397"/><path d="M208.63 226.13s-9.596-9.189-19.145-10.326c-9.549-1.137-18.75.192-26.109 7.233-1.396 1.336-3.855-1.067-7.32-3.773-2.205-1.722-7.447-6.558-5.62-5.27 1.945 1.371 10.962 5.521 17.607 2.559 17.553-7.824 32.477-.997 40.587 9.577z" stroke="#000"/><ellipse cx="184.684" cy="228.072" rx="12.076" ry="11.397"/><path d="M208.66 201.981c-1.98-1.565-28.169-6.611-28.169-6.611l-8.662-1.539-11.351 8 11.829-4.972s24.408 7.855 32.754 10.803c1.958.691 5.353-4.294 3.599-5.681z" stroke="#000"/><path d="M219.892 259.047c0 3.339 3.92 6.051 8.749 6.051 4.829 0 8.75-2.712 8.75-6.051 0 3.339-3.921 6.051-8.75 6.051-4.829 0-8.749-2.712-8.749-6.051z" fill="#f7f7f7" stroke="#000" stroke-width="2.13"/><path d="M222.811 263.517c0 6.121 2.534 11.089 5.656 11.089s5.657-4.968 5.657-11.089c-.943 3.06-3.153 5.545-5.657 5.545s-4.714-2.485-5.656-5.545z" fill="#dedede" stroke="#000" stroke-width="1.22"/><path d="M210.426 288.897c-.022 1.866 8.027 14.418 18.08 14.418 10.054 0 18.328-12.552 18.35-14.418.023-1.865-12.143 3.224-18.215 3.224-6.072 0-18.193-5.089-18.215-3.224z" stroke="#000" stroke-width="2.13"/></svg>